<svg width="24" height="24" viewBox="0 0 24 24" fill="none" xmlns="http://www.w3.org/2000/svg">
<path fill-rule="evenodd" clip-rule="evenodd" d="M12 2C15.31 2 18 4.69 18 8C18 12.5 12 19 12 19C12 19 6 12.5 6 8C6 4.69 8.69 2 12 2ZM5 20V22H19V20H5ZM8 8.00001C8 5.79001 9.79 4.00001 12 4.00001C14.21 4.00001 16 5.79001 16 8.00001C16 10.13 13.92 13.46 12 15.91C10.08 13.47 8 10.13 8 8.00001ZM10 7.99999C10 6.89999 10.9 5.99999 12 5.99999C13.1 5.99999 14 6.89999 14 7.99999C14 9.09999 13.11 9.99999 12 9.99999C10.9 9.99999 10 9.09999 10 7.99999Z" fill="#333333"/>
</svg>
