<svg width="24" height="24" viewBox="0 0 24 24" fill="none" xmlns="http://www.w3.org/2000/svg">
<path fill-rule="evenodd" clip-rule="evenodd" d="M4.25 4.715C6.24 2.735 8.98 1.505 12 1.505C15.02 1.505 17.76 2.735 19.75 4.715L18.34 6.125C16.72 4.505 14.47 3.505 12 3.505C9.53 3.505 7.28 4.505 5.66 6.125L4.25 4.715ZM8.43001 9.00503L7.00001 7.57503C8.28001 6.29503 10.05 5.50503 12 5.50503C13.95 5.50503 15.72 6.29503 17 7.57503L15.57 9.00503C14.66 8.09503 13.39 7.52503 12 7.52503C10.61 7.52503 9.34001 8.09503 8.43001 9.00503ZM14.86 10.515L9.14 10.505C8.51 10.505 8 11.015 8 11.645V21.355C8 21.985 8.51 22.495 9.14 22.495H14.85C15.48 22.495 15.99 21.985 15.99 21.355V11.645C16 11.015 15.49 10.515 14.86 10.515ZM8.99999 20.505H15V12.505H8.99999V20.505Z" fill="#333333"/>
</svg>
